# xmcd
#
# Track frame offsets: 
#        150
#        11208
#        28830
#        41077
#        62493
#        77890
#        96708
#        122848
#        142840
#        163298
#        177370
#        193238
#        213098
#        230998
#        247608
#        262008
#        283418
#        300203
#        319450
#        335630
#
# Disc length: 4660 seconds
#
# Revision: 4
# Processed by: cddbd v1.5.2PL0 Copyright (c) Steve Scherf et al.
# Submitted via: ExactAudioCopy v0.95b3
#
DISCID=34123214
DTITLE=Jerry Jeff Walker - Ultimate Collection: Jerry Jeff Walker
DYEAR=2001
DGENRE=Country
TTITLE0=Gypsy Songman
TTITLE1=Mr. Bojangles
TTITLE2=Jaded Lover
TTITLE3=L.A. Freeway
TTITLE4=Hairy Ass Hillbillies
TTITLE5=Gettin' By
TTITLE6=Desperados Waiting For A Train
TTITLE7=Sangria Wine
TTITLE8=Up Against The Wall Redneck
TTITLE9=Pot Can't Call The Kettle Black
TTITLE10=Like A Coat From The Cold
TTITLE11=Mississippi You're On My Mind
TTITLE12=Pissin' In The Wind
TTITLE13=It's A Good Night For Singing
TTITLE14=Old Five And Dimers Like Me
TTITLE15=Leavin' Texas
TTITLE16=Railroad Lady
TTITLE17=Tryin' To Hold The Wind Up With A Sail
TTITLE18=Lone Wolf
TTITLE19=I Ain't Livin' Long Like This
EXTD=YEAR: 2001
EXTT0=
EXTT1=
EXTT2=
EXTT3=
EXTT4=
EXTT5=
EXTT6=
EXTT7=
EXTT8=
EXTT9=
EXTT10=
EXTT11=
EXTT12=
EXTT13=
EXTT14=
EXTT15=
EXTT16=
EXTT17=
EXTT18=
EXTT19=
PLAYORDER=
